<svg xmlns="http://www.w3.org/2000/svg" xmlns:xlink="http://www.w3.org/1999/xlink" width="796.196" height="809.889" viewBox="0 0 796.196 809.889"><defs><style>.a{fill:#47aee1;}.b{filter:url(#a);}</style><filter id="a" x="0" y="0" width="796.196" height="809.889" filterUnits="userSpaceOnUse"><feOffset dy="3" input="SourceAlpha"/><feGaussianBlur stdDeviation="3" result="b"/><feFlood flood-opacity="0.09"/><feComposite operator="in" in2="b"/><feComposite in="SourceGraphic"/></filter></defs><g class="b" transform="matrix(1, 0, 0, 1, 0, 0)"><path class="a" d="M518.1,47.11c48.33,31.025,70.312,103.052,76.082,172.585s-4.522,136.571-29.466,209.534S500.323,581.236,438.274,608.207c-62.206,27.127-147.017,2.183-210.782-38.976-63.608-41.159-106.326-98.687-146.237-161.048S4.082,278.471.341,202.7c-3.9-75.768,25.724-160.113,84.5-189.267,58.932-29.154,147.017-2.962,228.554,4.989S469.767,16.086,518.1,47.11Z" transform="translate(565.17 797.89) rotate(-159)"/></g></svg>